<svg width="89" height="43" viewBox="0 0 89 43" fill="none" xmlns="http://www.w3.org/2000/svg">
<g clip-path="url(#clip0_2_45)">
<path fill-rule="evenodd" clip-rule="evenodd" d="M4.92489 7.46244C6.23884 7.46519 7.49728 7.71861 8.4264 8.16751C9.35551 8.61641 9.88007 9.22444 9.88577 9.85927C9.92057 10.4817 10.4569 11.073 11.3804 11.5073C12.3039 11.9416 13.5417 12.1846 14.8304 12.1846C16.1192 12.1846 17.357 11.9416 18.2805 11.5073C19.204 11.073 19.7403 10.4817 19.7751 9.85927V2.39686C19.7808 1.76203 20.3052 1.15398 21.2343 0.705078C22.1634 0.256181 23.422 0.00278271 24.736 3.05176e-05V3.05176e-05C26.0449 0.00598979 27.2961 0.260917 28.2187 0.709568C29.1412 1.15822 29.6605 1.76445 29.6643 2.39686V18.0643C29.6464 18.3834 29.7612 18.7011 30.0016 18.9985C30.2421 19.2958 30.6035 19.5669 31.0645 19.7957C31.5254 20.0245 32.0764 20.2064 32.6852 20.3305C33.294 20.4547 33.9481 20.5187 34.609 20.5187C35.2698 20.5187 35.9239 20.4547 36.5327 20.3305C37.1415 20.2064 37.6927 20.0245 38.1536 19.7957C38.6145 19.5669 38.9758 19.2958 39.2163 18.9985C39.4567 18.7011 39.5715 18.3834 39.5536 18.0643V9.85927C39.5593 9.22444 40.0839 8.61641 41.013 8.16751C41.9421 7.71861 43.2006 7.46519 44.5145 7.46244V7.46244C45.8234 7.4684 47.0746 7.72335 47.9972 8.172C48.9197 8.62065 49.4392 9.22686 49.443 9.85927V18.0643C49.443 18.6977 49.9638 19.3051 50.8907 19.7529C51.8177 20.2008 53.0748 20.4524 54.3857 20.4524C55.6966 20.4524 56.9539 20.2008 57.8809 19.7529C58.8078 19.3051 59.3286 18.6977 59.3286 18.0643V2.39686C59.3343 1.76173 59.8593 1.15341 60.7892 0.704461C61.7191 0.255514 62.9785 0.0023241 64.293 3.05176e-05V3.05176e-05C65.6034 0.00325904 66.8576 0.25736 67.7808 0.706653C68.704 1.15595 69.2209 1.76377 69.218 2.39686V9.85927C69.2528 10.4817 69.7889 11.073 70.7124 11.5073C71.6359 11.9416 72.8737 12.1846 74.1625 12.1846C75.4512 12.1846 76.6892 11.9416 77.6127 11.5073C78.5362 11.073 79.0723 10.4817 79.1071 9.85927C79.1128 9.22414 79.6379 8.61584 80.5677 8.16689C81.4976 7.71795 82.7571 7.46473 84.0717 7.46244V7.46244C85.3821 7.46567 86.6363 7.71979 87.5595 8.16908C88.4827 8.61838 88.9994 9.22618 88.9965 9.85927V33.1582C88.9917 33.7886 88.4713 34.3924 87.5487 34.8382C86.6262 35.2839 85.3764 35.5353 84.0717 35.5376V35.5376C82.7628 35.5363 81.5076 35.2858 80.5783 34.8404C79.649 34.395 79.1204 33.7906 79.1071 33.1582C79.125 32.839 79.0104 32.5214 78.77 32.224C78.5295 31.9266 78.1681 31.6555 77.7071 31.4268C77.2462 31.198 76.695 31.0161 76.0862 30.892C75.4774 30.7678 74.8233 30.7038 74.1625 30.7038C73.5017 30.7038 72.8477 30.7678 72.2389 30.892C71.6301 31.0161 71.0789 31.198 70.618 31.4268C70.1571 31.6555 69.7956 31.9266 69.5552 32.224C69.3147 32.5214 69.2001 32.839 69.218 33.1582V40.6119C69.2189 40.9246 69.0921 41.2343 68.845 41.5233C68.5979 41.8123 68.2353 42.0749 67.7778 42.296C67.3204 42.5172 66.777 42.6926 66.1791 42.8122C65.5811 42.9318 64.9402 42.9933 64.293 42.9931C62.9824 42.994 61.7243 42.7439 60.7945 42.2976C59.8647 41.8513 59.3388 41.2452 59.3321 40.6119V24.9236C59.3321 24.2902 58.8115 23.6828 57.8846 23.2349C56.9576 22.7871 55.7003 22.5355 54.3894 22.5355C53.0785 22.5355 51.8212 22.7871 50.8942 23.2349C49.9673 23.6828 49.4465 24.2902 49.4465 24.9236V33.146C49.4352 33.7757 48.9122 34.378 47.9903 34.8231C47.0684 35.2682 45.8215 35.5204 44.5182 35.5254V35.5254C43.2099 35.5236 41.9556 35.2729 41.0271 34.8275C40.0986 34.3822 39.5706 33.7781 39.5573 33.146V24.9236C39.5225 24.3011 38.9862 23.7099 38.0627 23.2756C37.1392 22.8413 35.9014 22.5983 34.6127 22.5983C33.3239 22.5983 32.0859 22.8413 31.1624 23.2756C30.2389 23.7099 29.7028 24.3011 29.668 24.9236V40.6119C29.6642 41.2429 29.1437 41.8475 28.2202 42.2936C27.2968 42.7398 26.0454 42.9912 24.7395 42.9931V42.9931C23.4286 42.9945 22.17 42.7445 21.2399 42.2981C20.3099 41.8517 19.7844 41.2453 19.7786 40.6119V33.1512C19.7965 32.8321 19.6817 32.5144 19.4413 32.2171C19.2008 31.9197 18.8396 31.6486 18.3786 31.4198C17.9177 31.191 17.3665 31.0092 16.7577 30.885C16.1489 30.7608 15.4948 30.6968 14.834 30.6968C14.1731 30.6968 13.519 30.7608 12.9102 30.885C12.3014 31.0092 11.7504 31.191 11.2895 31.4198C10.8286 31.6486 10.4671 31.9197 10.2267 32.2171C9.98619 32.5144 9.87145 32.8321 9.88929 33.1512C9.87602 33.7833 9.34803 34.3874 8.41953 34.8328C7.49102 35.2781 6.23674 35.5288 4.92841 35.5306C3.62514 35.5256 2.37824 35.2734 1.45632 34.8283C0.534408 34.3832 0.0114387 33.7809 0.00012207 33.1512V9.85927C0.00386077 9.22686 0.523228 8.62065 1.44575 8.172C2.36828 7.72335 3.61952 7.4684 4.92841 7.46244H4.92489ZM19.7751 16.7308C19.793 16.4116 19.6782 16.094 19.4378 15.7966C19.1973 15.4992 18.8359 15.2281 18.3749 14.9993C17.914 14.7705 17.363 14.5887 16.7542 14.4645C16.1454 14.3404 15.4913 14.2764 14.8304 14.2764C14.1696 14.2764 13.5155 14.3404 12.9067 14.4645C12.2979 14.5887 11.7467 14.7705 11.2858 14.9993C10.8249 15.2281 10.4636 15.4992 10.2231 15.7966C9.98266 16.094 9.86792 16.4116 9.88577 16.7308V26.2867C9.92057 26.9091 10.4569 27.5004 11.3804 27.9347C12.3039 28.369 13.5417 28.612 14.8304 28.612C16.1192 28.612 17.357 28.369 18.2805 27.9347C19.204 27.5004 19.7403 26.9091 19.7751 26.2867V16.7308ZM69.2035 26.2867V16.7308C69.1857 16.4116 69.3002 16.094 69.5407 15.7966C69.7812 15.4992 70.1426 15.2281 70.6035 14.9993C71.0644 14.7705 71.6157 14.5887 72.2245 14.4645C72.8332 14.3404 73.4874 14.2764 74.1482 14.2764C74.809 14.2764 75.463 14.3404 76.0718 14.4645C76.6806 14.5887 77.2318 14.7705 77.6927 14.9993C78.1536 15.2281 78.515 15.4992 78.7555 15.7966C78.996 16.094 79.1105 16.4116 79.0927 16.7308V26.2867C79.0579 26.9091 78.5218 27.5004 77.5983 27.9347C76.6748 28.369 75.4369 28.612 74.1482 28.612C72.8595 28.612 71.6215 28.369 70.698 27.9347C69.7745 27.5004 69.2383 26.9091 69.2035 26.2867Z" fill="#E15539"/>
</g>
<defs>
<clipPath id="clip0_2_45">
<rect width="89" height="43" fill="white"/>
</clipPath>
</defs>
</svg>
