<svg width="14" height="15" viewBox="0 0 14 15" fill="none" xmlns="http://www.w3.org/2000/svg">
<path d="M13.2375 14.295L8.01917 9.07667C7.60251 9.43167 7.12334 9.70639 6.58167 9.90084C6.04001 10.0953 5.49556 10.1925 4.94834 10.1925C3.6139 10.1925 2.48445 9.73056 1.56001 8.80667C0.635562 7.88223 0.17334 6.75306 0.17334 5.41917C0.17334 4.08528 0.635006 2.95556 1.55834 2.03001C2.48223 1.10389 3.61112 0.640839 4.94501 0.640839C6.27945 0.640839 7.40945 1.10306 8.33501 2.02751C9.26056 2.95195 9.72334 4.08167 9.72334 5.41667C9.72334 5.99556 9.62084 6.55584 9.41584 7.09751C9.21028 7.63917 8.94084 8.10251 8.60751 8.48751L13.8258 13.705L13.2375 14.295ZM4.94834 9.35834C6.0539 9.35834 6.98751 8.97778 7.74917 8.21667C8.51028 7.45556 8.89084 6.52195 8.89084 5.41584C8.89084 4.31028 8.51028 3.37695 7.74917 2.61584C6.98806 1.85473 6.05473 1.47417 4.94917 1.47417C3.84362 1.47417 2.91001 1.85473 2.14834 2.61584C1.38723 3.37695 1.00667 4.31028 1.00667 5.41584C1.00667 6.52139 1.38723 7.45473 2.14834 8.21584C2.90945 8.97695 3.84278 9.35834 4.94834 9.35834Z" fill="#545454"/>
</svg>
